<?xml version="1.0" encoding="UTF-8"?><svg xmlns="http://www.w3.org/2000/svg" xmlns:xlink="http://www.w3.org/1999/xlink" fill-opacity="1" color-rendering="auto" color-interpolation="auto" text-rendering="auto" stroke="black" stroke-linecap="square" width="1154" stroke-miterlimit="10" shape-rendering="auto" stroke-opacity="1" fill="black" stroke-dasharray="none" font-weight="normal" stroke-width="1" height="770" font-family="'Dialog'" font-style="normal" stroke-linejoin="miter" font-size="12px" stroke-dashoffset="0" image-rendering="auto">
  <!--Generated by ySVG 2.5-->
  <defs id="genericDefs"/>
  <g>
    <defs id="defs1">
      <clipPath clipPathUnits="userSpaceOnUse" id="clipPath1">
        <path d="M0 0 L1154 0 L1154 770 L0 770 L0 0 Z"/>
      </clipPath>
      <clipPath clipPathUnits="userSpaceOnUse" id="clipPath2">
        <path d="M-395 -69 L759 -69 L759 701 L-395 701 L-395 -69 Z"/>
      </clipPath>
    </defs>
    <g fill="white" text-rendering="geometricPrecision" shape-rendering="geometricPrecision" transform="translate(395,69)" stroke="white">
      <rect x="-395" width="1154" height="770" y="-69" clip-path="url(#clipPath2)" stroke="none"/>
    </g>
    <g fill="rgb(255,204,0)" text-rendering="geometricPrecision" shape-rendering="geometricPrecision" transform="matrix(1,0,0,1,395,69)" stroke="rgb(255,204,0)">
      <rect x="-380" y="293" clip-path="url(#clipPath2)" width="252" rx="4" ry="4" height="104" stroke="none"/>
    </g>
    <g text-rendering="geometricPrecision" stroke-miterlimit="1.45" shape-rendering="geometricPrecision" transform="matrix(1,0,0,1,395,69)" stroke-linecap="butt">
      <rect x="-380" y="293" clip-path="url(#clipPath2)" fill="none" width="252" rx="4" ry="4" height="104"/>
      <text x="-371.2773" font-size="16px" y="341.625" clip-path="url(#clipPath2)" font-family="sans-serif" stroke="none" xml:space="preserve">alluxio: none (before creation)</text>
      <text x="-373.5273" font-size="16px" y="360.4688" clip-path="url(#clipPath2)" font-family="sans-serif" stroke="none" xml:space="preserve">dataset: none (before creation)</text>
    </g>
    <g fill="rgb(255,204,0)" text-rendering="geometricPrecision" shape-rendering="geometricPrecision" transform="matrix(1,0,0,1,395,69)" stroke="rgb(255,204,0)">
      <rect x="-81" y="0" clip-path="url(#clipPath2)" width="167" rx="4" ry="4" height="104" stroke="none"/>
    </g>
    <g text-rendering="geometricPrecision" stroke-miterlimit="1.45" shape-rendering="geometricPrecision" transform="matrix(1,0,0,1,395,69)" stroke-linecap="butt">
      <rect x="-81" y="0" clip-path="url(#clipPath2)" fill="none" width="167" rx="4" ry="4" height="104"/>
      <text x="-60.4609" font-size="16px" y="48.625" clip-path="url(#clipPath2)" font-family="sans-serif" stroke="none" xml:space="preserve">alluxio: pending</text>
      <text x="-50.2539" font-size="16px" y="67.4688" clip-path="url(#clipPath2)" font-family="sans-serif" stroke="none" xml:space="preserve">dataset: none</text>
    </g>
    <g fill="rgb(255,204,0)" text-rendering="geometricPrecision" shape-rendering="geometricPrecision" transform="matrix(1,0,0,1,395,69)" stroke="rgb(255,204,0)">
      <rect x="-81" y="582" clip-path="url(#clipPath2)" width="167" rx="4" ry="4" height="104" stroke="none"/>
    </g>
    <g text-rendering="geometricPrecision" stroke-miterlimit="1.45" shape-rendering="geometricPrecision" transform="matrix(1,0,0,1,395,69)" stroke-linecap="butt">
      <rect x="-81" y="582" clip-path="url(#clipPath2)" fill="none" width="167" rx="4" ry="4" height="104"/>
      <text x="-48.0039" font-size="16px" y="630.625" clip-path="url(#clipPath2)" font-family="sans-serif" stroke="none" xml:space="preserve">alluxio: none</text>
      <text x="-62.7109" font-size="16px" y="649.4688" clip-path="url(#clipPath2)" font-family="sans-serif" stroke="none" xml:space="preserve">dataset: pending</text>
    </g>
    <g fill="rgb(255,204,0)" text-rendering="geometricPrecision" shape-rendering="geometricPrecision" transform="matrix(1,0,0,1,395,69)" stroke="rgb(255,204,0)">
      <rect x="433" y="277" clip-path="url(#clipPath2)" width="243" rx="4" ry="4" height="126" stroke="none"/>
    </g>
    <g text-rendering="geometricPrecision" stroke-miterlimit="1.45" shape-rendering="geometricPrecision" transform="matrix(1,0,0,1,395,69)" stroke-linecap="butt">
      <rect x="433" y="277" clip-path="url(#clipPath2)" fill="none" width="243" rx="4" ry="4" height="126"/>
      <text x="452.8867" font-size="16px" y="336.625" clip-path="url(#clipPath2)" font-family="sans-serif" stroke="none" xml:space="preserve">alluxio: creating/updating</text>
      <text x="483.8672" font-size="16px" y="355.4688" clip-path="url(#clipPath2)" font-family="sans-serif" stroke="none" xml:space="preserve">dataset: bounding</text>
    </g>
    <g fill="rgb(255,204,0)" text-rendering="geometricPrecision" shape-rendering="geometricPrecision" transform="matrix(1,0,0,1,395,69)" stroke="rgb(255,204,0)">
      <rect x="-5" y="291" clip-path="url(#clipPath2)" width="167" rx="4" ry="4" height="104" stroke="none"/>
    </g>
    <g text-rendering="geometricPrecision" stroke-miterlimit="1.45" shape-rendering="geometricPrecision" transform="matrix(1,0,0,1,395,69)" stroke-linecap="butt">
      <rect x="-5" y="291" clip-path="url(#clipPath2)" fill="none" width="167" rx="4" ry="4" height="104"/>
      <text x="25.9336" font-size="16px" y="339.625" clip-path="url(#clipPath2)" font-family="sans-serif" stroke="none" xml:space="preserve">alluxio: ready</text>
      <text x="23.6836" font-size="16px" y="358.4688" clip-path="url(#clipPath2)" font-family="sans-serif" stroke="none" xml:space="preserve">dataset: ready</text>
      <path fill="none" d="M-236.0007 292.968 L-226.8441 271.733 L-215.6446 249.1906 L-203.3714 227.5882 L-190.0245 206.9258 L-175.6039 187.2033 L-160.1095 168.4208 L-143.5414 150.5783 L-125.8995 133.6758 L-107.1839 117.7132 L-87.6191 102.8611 L-87.5363 102.8051" clip-path="url(#clipPath2)"/>
      <path d="M-80.9144 98.3162 L-93.6528 100.9109 L-88.364 103.3662 L-88.0416 109.1883 Z" clip-path="url(#clipPath2)" stroke="none"/>
      <text x="-211.4938" font-size="13px" y="187.7551" clip-path="url(#clipPath2)" font-family="sans-serif" stroke="none" xml:space="preserve">Create alluxio</text>
      <path fill="none" d="M58.7382 -0.0221 L58.7783 -2.6847 L58.3228 -7.9734 L57.355 -13.1126 L55.8996 -18.0741 L53.9815 -22.8297 L51.6253 -27.3511 L48.8559 -31.6101 L45.698 -35.5785 L42.1764 -39.2279 L38.3159 -42.5302 L34.1411 -45.4571 L29.677 -47.9803 L24.9482 -50.0716 L19.9796 -51.7028 L14.7959 -52.8456 L9.4218 -53.4717 L4.012 -53.5533 L-1.2766 -53.0978 L-6.4158 -52.13 L-11.3773 -50.6746 L-16.1329 -48.7564 L-20.6544 -46.4003 L-24.9134 -43.6308 L-28.8817 -40.4729 L-32.5312 -36.9513 L-35.8335 -33.0908 L-38.7603 -28.9161 L-41.2836 -24.4519 L-43.3749 -19.7232 L-45.006 -14.7545 L-46.1488 -9.5708 L-46.3322 -7.9966 L-46.3337 -7.8966" clip-path="url(#clipPath2)"/>
      <path d="M-46.8444 0.0871 L-41.0886 -11.5693 L-46.2699 -8.8946 L-51.0682 -12.2076 Z" clip-path="url(#clipPath2)" stroke="none"/>
      <path fill="none" d="M-14.6599 103.9771 L-23.8536 125.9695 L-34.8678 148.6739 L-46.997 170.4024 L-60.241 191.1549 L-74.6 210.9314 L-90.0738 229.7319 L-106.6625 247.5564 L-124.366 264.4049 L-143.1845 280.2774 L-153.7897 288.2029" clip-path="url(#clipPath2)"/>
      <path d="M-160.1979 292.9919 L-147.5924 289.8135 L-152.9886 287.6042 L-153.5787 281.8032 Z" clip-path="url(#clipPath2)" stroke="none"/>
      <text x="-133.4124" font-size="13px" y="234.645" clip-path="url(#clipPath2)" font-family="sans-serif" stroke="none" xml:space="preserve">Delete alluxio</text>
      <path fill="none" d="M-162.5715 396.9903 L-145.3305 410.0057 L-126.7071 425.7676 L-109.1206 442.4497 L-92.5709 460.0521 L-77.0581 478.5747 L-62.5821 498.0176 L-49.143 518.3807 L-36.7407 539.6641 L-25.3752 561.8677 L-19.6609 574.6611" clip-path="url(#clipPath2)"/>
      <path d="M-16.3982 581.9655 L-16.7269 568.9697 L-20.0687 573.748 L-25.8575 573.048 Z" clip-path="url(#clipPath2)" stroke="none"/>
      <text x="-127.9818" font-size="13px" y="483.5062" clip-path="url(#clipPath2)" font-family="sans-serif" stroke="none" xml:space="preserve">Create dataset</text>
      <path fill="none" d="M-81.0181 598.3242 L-94.3046 590.7546 L-115.1017 576.9219 L-134.537 561.8807 L-152.6108 545.631 L-169.3228 528.1728 L-184.6733 509.506 L-198.662 489.6307 L-211.2892 468.5469 L-222.5546 446.2546 L-232.4585 422.7537 L-238.738 404.5893 L-238.7647 404.4929" clip-path="url(#clipPath2)"/>
      <path d="M-241.32 396.912 L-242.2251 409.8804 L-238.4453 405.4405 L-232.749 406.6863 Z" clip-path="url(#clipPath2)" stroke="none"/>
      <text x="-253.9813" font-size="13px" y="519.1522" clip-path="url(#clipPath2)" font-family="sans-serif" stroke="none" xml:space="preserve">Delete dataset</text>
      <path fill="none" d="M85.9751 56.5591 L87.8243 56.7118 L128.7374 62.42 L168.4845 70.3631 L207.0656 80.541 L244.4806 92.9538 L280.7296 107.6015 L315.8127 124.4841 L349.7296 143.6015 L382.4806 164.9538 L414.0656 188.541 L444.4845 214.3631 L473.7374 242.42 L500.1678 270.9253 L500.2316 271.0023" clip-path="url(#clipPath2)"/>
      <path d="M505.4385 277.0759 L501.4241 264.7112 L499.5807 270.2431 L493.8321 271.2198 Z" clip-path="url(#clipPath2)" stroke="none"/>
      <text x="305.9556" font-size="13px" y="116.9131" clip-path="url(#clipPath2)" font-family="sans-serif" stroke="none" xml:space="preserve">Create dataset</text>
      <path fill="none" d="M73.8956 582.0158 L131.3475 543.3157 L198.0593 502.2696 L266.2966 464.0876 L336.0593 428.7696 L407.3475 396.3157 L425.5701 388.9104" clip-path="url(#clipPath2)"/>
      <path d="M432.9815 385.8985 L419.982 385.7841 L424.6437 389.2868 L423.7468 395.0484 Z" clip-path="url(#clipPath2)" stroke="none"/>
      <text x="191.1333" font-size="13px" y="489.2558" clip-path="url(#clipPath2)" font-family="sans-serif" stroke="none" xml:space="preserve">Create alluxio</text>
      <path fill="none" d="M583.128 402.9954 L585.5681 405.4211 L592.5885 411.1803 L600.1396 416.2517 L608.1715 420.5903 L616.6343 424.151 L625.4781 426.8886 L634.653 428.7581 L644.1089 429.7144 L653.7962 429.7124 L663.434 428.7345 L672.7448 426.8267 L681.6835 424.0387 L690.205 420.4205 L698.2642 416.0221 L705.8161 410.8933 L712.8155 405.0841 L719.2173 398.6443 L724.9766 391.6239 L730.048 384.0728 L734.3866 376.0409 L737.9473 367.5781 L740.6849 358.7343 L742.5544 349.5594 L743.5107 340.1034 L743.5086 330.4162 L742.5308 320.7784 L740.6229 311.4676 L737.8349 302.5289 L734.2168 294.0074 L729.8184 285.9482 L724.6896 278.3963 L718.8803 271.3969 L712.4406 264.9951 L705.4202 259.2359 L697.869 254.1644 L689.8371 249.8258 L681.3743 246.2652 L672.5305 243.5275 L663.3557 241.658 L653.8997 240.7018 L644.2124 240.7038 L634.5746 241.6816 L625.2639 243.5895 L616.3251 246.3775 L607.8036 249.9956 L599.7444 254.394 L592.1925 259.5228 L585.1931 265.3321 L579.6584 270.8996 L579.595 270.9769" clip-path="url(#clipPath2)"/>
      <path d="M574.4299 277.086 L585.9958 271.1505 L580.2406 270.2133 L578.3593 264.6941 Z" clip-path="url(#clipPath2)" stroke="none"/>
      <path fill="none" d="M432.9772 314.7108 L397.5652 304.2918 L360.3038 291.5844 L323.8315 277.3647 L288.148 261.633 L253.2535 244.3891 L219.148 225.633 L185.8315 205.3647 L153.3038 183.5844 L121.5652 160.2918 L90.6154 135.4871 L60.7962 109.4682 L60.7236 109.3995" clip-path="url(#clipPath2)"/>
      <path d="M54.9034 103.9109 L60.2034 115.7814 L61.4512 110.0855 L67.0641 108.5061 Z" clip-path="url(#clipPath2)" stroke="none"/>
      <text x="212.3333" font-size="13px" y="247.9131" clip-path="url(#clipPath2)" font-family="sans-serif" stroke="none" xml:space="preserve">Delete dataset</text>
      <path fill="none" d="M516.4869 403.0172 L507.094 417.2938 L481.0773 451.5966 L453.5182 483.0036 L424.4167 511.5145 L393.7728 537.1295 L361.5864 559.8484 L327.8576 579.6714 L292.5864 596.5984 L255.7728 610.6295 L217.4167 621.7645 L177.5182 630.0036 L136.0773 635.3467 L94.0063 637.7418 L93.9063 637.7408" clip-path="url(#clipPath2)"/>
      <path d="M85.9064 637.722 L97.8946 642.7501 L94.9063 637.7431 L97.918 632.7501 Z" clip-path="url(#clipPath2)" stroke="none"/>
      <text x="306.3164" font-size="13px" y="605.197" clip-path="url(#clipPath2)" font-family="sans-serif" stroke="none" xml:space="preserve">Delete alluxio</text>
      <path fill="none" d="M432.9724 340.7659 L169.9688 342.4235" clip-path="url(#clipPath2)"/>
      <path d="M161.9689 342.4739 L174.0002 347.3982 L170.9687 342.4172 L173.9371 337.3984 Z" clip-path="url(#clipPath2)" stroke="none"/>
      <path fill="none" d="M54.5289 290.9957 L53.5593 290.1144 L48.2832 286.169 L42.6324 282.7361 L36.6414 279.8501 L30.3446 277.5454 L23.7765 275.8566 L16.9716 274.8181 L9.9642 274.4642 L2.9568 274.8181 L-3.8482 275.8566 L-10.4163 277.5454 L-16.713 279.8501 L-22.7041 282.7361 L-28.3548 286.169 L-33.631 290.1144 L-38.4979 294.5379 L-42.9214 299.4049 L-46.8668 304.681 L-50.2997 310.3318 L-53.1857 316.3228 L-55.4904 322.6196 L-57.1792 329.1877 L-58.2178 335.9926 L-58.5716 343 L-58.2178 350.0074 L-57.1792 356.8124 L-55.4904 363.3805 L-53.1857 369.6772 L-50.2997 375.6682 L-46.8668 381.319 L-42.9214 386.5952 L-38.4979 391.4622 L-33.6309 395.8856 L-28.3548 399.831 L-22.704 403.2639 L-16.713 406.1499 L-10.4163 408.4546 L-3.8482 410.1434 L2.9568 411.182 L9.9642 411.5358 L16.9716 411.182 L23.7766 410.1434 L30.3447 408.4546 L36.6414 406.1499 L42.6324 403.2639 L48.1915 399.8867 L48.2706 399.8255" clip-path="url(#clipPath2)"/>
      <path d="M54.6082 394.9433 L42.0505 398.3057 L47.4785 400.4358 L48.1533 406.2275 Z" clip-path="url(#clipPath2)" stroke="none"/>
      <path fill="none" d="M64.9272 394.9694 L18.1089 574.2343" clip-path="url(#clipPath2)"/>
      <path d="M16.0874 581.9746 L23.9574 571.6275 L18.3616 573.2667 L14.2819 569.1006 Z" clip-path="url(#clipPath2)" stroke="none"/>
      <text x="1.5198" font-size="13px" y="476.7248" clip-path="url(#clipPath2)" font-family="sans-serif" stroke="none" xml:space="preserve">Delete alluxio</text>
      <path fill="none" d="M77.5466 290.9982 L75.7613 266.0031 L70.3267 228.5663 L62.1818 191.8374 L51.3267 155.8163 L37.7613 120.5031 L33.3939 111.2169" clip-path="url(#clipPath2)"/>
      <path d="M29.9891 103.9776 L30.5717 116.9645 L33.8195 112.1218 L39.6208 112.7086 Z" clip-path="url(#clipPath2)" stroke="none"/>
      <text x="18.7308" font-size="13px" y="212.6448" clip-path="url(#clipPath2)" font-family="sans-serif" stroke="none" xml:space="preserve">Delete dataset</text>
    </g>
  </g>
</svg>
